<mxfile host="65bd71144e">
    <diagram id="mwPNRn92RSraB_lIBYBo" name="Page-1">
        <mxGraphModel dx="1596" dy="418" grid="1" gridSize="10" guides="1" tooltips="1" connect="1" arrows="1" fold="1" page="1" pageScale="1" pageWidth="850" pageHeight="1100" math="0" shadow="0">
            <root>
                <mxCell id="0"/>
                <mxCell id="1" parent="0"/>
                <mxCell id="200" value="" style="group" vertex="1" connectable="0" parent="1">
                    <mxGeometry x="1150" y="1520" width="240" height="450" as="geometry"/>
                </mxCell>
                <mxCell id="201" style="edgeStyle=orthogonalEdgeStyle;rounded=0;orthogonalLoop=1;jettySize=auto;html=1;exitX=0.5;exitY=0;exitDx=0;exitDy=0;endArrow=classic;endFill=1;strokeWidth=10;fillColor=#60a917;strokeColor=#2D7600;" edge="1" parent="200" source="202">
                    <mxGeometry relative="1" as="geometry">
                        <mxPoint x="40.71428571428578" as="targetPoint"/>
                    </mxGeometry>
                </mxCell>
                <mxCell id="202" value="" style="ellipse;whiteSpace=wrap;html=1;aspect=fixed;rotation=-360;" vertex="1" parent="200">
                    <mxGeometry y="130" width="80" height="80" as="geometry"/>
                </mxCell>
                <mxCell id="203" style="edgeStyle=orthogonalEdgeStyle;rounded=0;orthogonalLoop=1;jettySize=auto;html=1;exitX=0.5;exitY=0;exitDx=0;exitDy=0;endArrow=classic;endFill=1;strokeWidth=5;" edge="1" parent="200" source="204">
                    <mxGeometry x="305" y="390" as="geometry">
                        <mxPoint x="200" y="90" as="targetPoint"/>
                    </mxGeometry>
                </mxCell>
                <mxCell id="204" value="" style="ellipse;whiteSpace=wrap;html=1;aspect=fixed;rotation=-360;" vertex="1" parent="200">
                    <mxGeometry x="160" y="130" width="80" height="80" as="geometry"/>
                </mxCell>
                <mxCell id="205" value="" style="ellipse;whiteSpace=wrap;html=1;aspect=fixed;rotation=-360;" vertex="1" parent="200">
                    <mxGeometry x="160" y="290" width="80" height="80" as="geometry"/>
                </mxCell>
                <mxCell id="206" value="" style="ellipse;whiteSpace=wrap;html=1;aspect=fixed;rotation=-360;" vertex="1" parent="200">
                    <mxGeometry y="290" width="80" height="80" as="geometry"/>
                </mxCell>
                <mxCell id="207" value="" style="endArrow=none;html=1;entryX=0.5;entryY=1;entryDx=0;entryDy=0;exitX=0.5;exitY=0;exitDx=0;exitDy=0;fillColor=#60a917;strokeColor=#2D7600;strokeWidth=10;" edge="1" parent="200" source="205" target="204">
                    <mxGeometry x="255" y="340" width="50" height="50" as="geometry">
                        <mxPoint x="-90" y="310" as="sourcePoint"/>
                        <mxPoint x="-40" y="260" as="targetPoint"/>
                    </mxGeometry>
                </mxCell>
                <mxCell id="208" value="&lt;font style=&quot;font-size: 20px&quot;&gt;Vdd=3.3V&lt;/font&gt;" style="text;html=1;align=center;verticalAlign=middle;resizable=0;points=[];autosize=1;strokeColor=none;" vertex="1" parent="200">
                    <mxGeometry x="55" y="20" width="100" height="20" as="geometry"/>
                </mxCell>
                <mxCell id="209" value="" style="triangle;whiteSpace=wrap;html=1;rotation=90;strokeWidth=10;strokeColor=#2D7600;fontColor=#ffffff;fillColor=none;" vertex="1" parent="200">
                    <mxGeometry x="17.5" y="387.5" width="45" height="80" as="geometry"/>
                </mxCell>
                <mxCell id="210" style="edgeStyle=orthogonalEdgeStyle;rounded=0;orthogonalLoop=1;jettySize=auto;html=1;exitX=0.5;exitY=1;exitDx=0;exitDy=0;endArrow=none;endFill=0;strokeWidth=10;fillColor=#60a917;strokeColor=#2D7600;" edge="1" parent="200" source="206" target="209">
                    <mxGeometry relative="1" as="geometry">
                        <mxPoint x="40" y="435" as="targetPoint"/>
                    </mxGeometry>
                </mxCell>
                <mxCell id="211" value="&lt;font style=&quot;font-size: 20px&quot;&gt;GND&lt;/font&gt;" style="text;html=1;align=center;verticalAlign=middle;resizable=0;points=[];autosize=1;strokeColor=none;" vertex="1" parent="200">
                    <mxGeometry x="75" y="430" width="60" height="20" as="geometry"/>
                </mxCell>
                <mxCell id="198" value="" style="group;rotation=-180;" vertex="1" connectable="0" parent="200">
                    <mxGeometry x="-20" y="90" width="240" height="280" as="geometry"/>
                </mxCell>
                <mxCell id="182" value="" style="ellipse;whiteSpace=wrap;html=1;aspect=fixed;rotation=-360;" vertex="1" parent="198">
                    <mxGeometry y="40" width="80" height="80" as="geometry"/>
                </mxCell>
                <mxCell id="183" style="edgeStyle=orthogonalEdgeStyle;rounded=0;orthogonalLoop=1;jettySize=auto;html=1;exitX=0.5;exitY=0;exitDx=0;exitDy=0;endArrow=classic;endFill=1;strokeWidth=5;" edge="1" parent="198" source="184">
                    <mxGeometry x="620" y="300" as="geometry">
                        <mxPoint x="200" as="targetPoint"/>
                    </mxGeometry>
                </mxCell>
                <mxCell id="184" value="" style="ellipse;whiteSpace=wrap;html=1;aspect=fixed;rotation=-360;" vertex="1" parent="198">
                    <mxGeometry x="160" y="40" width="80" height="80" as="geometry"/>
                </mxCell>
                <mxCell id="185" value="" style="ellipse;whiteSpace=wrap;html=1;aspect=fixed;rotation=-360;" vertex="1" parent="198">
                    <mxGeometry x="160" y="200" width="80" height="80" as="geometry"/>
                </mxCell>
                <mxCell id="186" value="" style="ellipse;whiteSpace=wrap;html=1;aspect=fixed;rotation=-360;" vertex="1" parent="198">
                    <mxGeometry y="200" width="80" height="80" as="geometry"/>
                </mxCell>
                <mxCell id="187" value="" style="endArrow=none;html=1;entryX=1;entryY=1;entryDx=0;entryDy=0;exitX=0;exitY=0;exitDx=0;exitDy=0;fillColor=#a20025;strokeColor=#6F0000;strokeWidth=10;" edge="1" parent="198" source="185" target="182">
                    <mxGeometry x="570" y="250" width="50" height="50" as="geometry">
                        <mxPoint x="-90" y="220" as="sourcePoint"/>
                        <mxPoint x="-40" y="170" as="targetPoint"/>
                    </mxGeometry>
                </mxCell>
                <mxCell id="188" value="" style="endArrow=none;html=1;entryX=1;entryY=0;entryDx=0;entryDy=0;exitX=0;exitY=1;exitDx=0;exitDy=0;fillColor=#1ba1e2;strokeColor=#006EAF;strokeWidth=10;" edge="1" parent="198" source="184" target="186">
                    <mxGeometry x="570" y="250" width="50" height="50" as="geometry">
                        <mxPoint x="182" y="222" as="sourcePoint"/>
                        <mxPoint x="78" y="118" as="targetPoint"/>
                    </mxGeometry>
                </mxCell>
                <mxCell id="2" value="use breadboard pins as user io" style="text;html=1;align=center;verticalAlign=middle;resizable=0;points=[];autosize=1;strokeColor=none;" vertex="1" parent="1">
                    <mxGeometry x="140" y="70" width="180" height="20" as="geometry"/>
                </mxCell>
                <mxCell id="11" value="" style="whiteSpace=wrap;html=1;aspect=fixed;" vertex="1" parent="1">
                    <mxGeometry x="250" y="190" width="240" height="240" as="geometry"/>
                </mxCell>
                <mxCell id="12" value="" style="ellipse;whiteSpace=wrap;html=1;aspect=fixed;" vertex="1" parent="1">
                    <mxGeometry x="250" y="190" width="80" height="80" as="geometry"/>
                </mxCell>
                <mxCell id="14" value="" style="ellipse;whiteSpace=wrap;html=1;aspect=fixed;" vertex="1" parent="1">
                    <mxGeometry x="410" y="190" width="80" height="80" as="geometry"/>
                </mxCell>
                <mxCell id="15" value="" style="ellipse;whiteSpace=wrap;html=1;aspect=fixed;" vertex="1" parent="1">
                    <mxGeometry x="410" y="270" width="80" height="80" as="geometry"/>
                </mxCell>
                <mxCell id="16" value="" style="ellipse;whiteSpace=wrap;html=1;aspect=fixed;" vertex="1" parent="1">
                    <mxGeometry x="410" y="350" width="80" height="80" as="geometry"/>
                </mxCell>
                <mxCell id="18" value="" style="ellipse;whiteSpace=wrap;html=1;aspect=fixed;" vertex="1" parent="1">
                    <mxGeometry x="250" y="270" width="80" height="80" as="geometry"/>
                </mxCell>
                <mxCell id="20" value="" style="ellipse;whiteSpace=wrap;html=1;aspect=fixed;" vertex="1" parent="1">
                    <mxGeometry x="250" y="350" width="80" height="80" as="geometry"/>
                </mxCell>
                <mxCell id="26" value="" style="endArrow=none;html=1;exitX=0;exitY=0.5;exitDx=0;exitDy=0;" edge="1" parent="1" source="14">
                    <mxGeometry width="50" height="50" relative="1" as="geometry">
                        <mxPoint x="410" y="240" as="sourcePoint"/>
                        <mxPoint x="350" y="200" as="targetPoint"/>
                    </mxGeometry>
                </mxCell>
                <mxCell id="28" value="" style="curved=1;endArrow=classic;html=1;exitX=0;exitY=0.5;exitDx=0;exitDy=0;" edge="1" parent="1" source="14">
                    <mxGeometry width="50" height="50" relative="1" as="geometry">
                        <mxPoint x="400" y="230" as="sourcePoint"/>
                        <mxPoint x="360" y="240" as="targetPoint"/>
                        <Array as="points">
                            <mxPoint x="380" y="210"/>
                        </Array>
                    </mxGeometry>
                </mxCell>
                <mxCell id="29" value="SW" style="text;html=1;align=center;verticalAlign=middle;resizable=0;points=[];autosize=1;strokeColor=none;" vertex="1" parent="1">
                    <mxGeometry x="370" y="230" width="30" height="20" as="geometry"/>
                </mxCell>
                <mxCell id="34" style="edgeStyle=orthogonalEdgeStyle;rounded=0;orthogonalLoop=1;jettySize=auto;html=1;exitX=0.5;exitY=1;exitDx=0;exitDy=0;entryX=0.5;entryY=0;entryDx=0;entryDy=0;endArrow=none;endFill=0;" edge="1" parent="1" source="30" target="33">
                    <mxGeometry relative="1" as="geometry"/>
                </mxCell>
                <mxCell id="30" value="" style="ellipse;whiteSpace=wrap;html=1;aspect=fixed;" vertex="1" parent="1">
                    <mxGeometry x="620" y="200" width="80" height="80" as="geometry"/>
                </mxCell>
                <mxCell id="35" style="edgeStyle=orthogonalEdgeStyle;rounded=0;orthogonalLoop=1;jettySize=auto;html=1;exitX=0.5;exitY=1;exitDx=0;exitDy=0;entryX=0.5;entryY=0;entryDx=0;entryDy=0;endArrow=none;endFill=0;" edge="1" parent="1" source="31" target="32">
                    <mxGeometry relative="1" as="geometry"/>
                </mxCell>
                <mxCell id="31" value="" style="ellipse;whiteSpace=wrap;html=1;aspect=fixed;" vertex="1" parent="1">
                    <mxGeometry x="780" y="200" width="80" height="80" as="geometry"/>
                </mxCell>
                <mxCell id="32" value="" style="ellipse;whiteSpace=wrap;html=1;aspect=fixed;" vertex="1" parent="1">
                    <mxGeometry x="780" y="360" width="80" height="80" as="geometry"/>
                </mxCell>
                <mxCell id="33" value="" style="ellipse;whiteSpace=wrap;html=1;aspect=fixed;" vertex="1" parent="1">
                    <mxGeometry x="620" y="360" width="80" height="80" as="geometry"/>
                </mxCell>
                <mxCell id="36" value="board" style="text;html=1;align=center;verticalAlign=middle;resizable=0;points=[];autosize=1;strokeColor=none;" vertex="1" parent="1">
                    <mxGeometry x="635" y="130" width="50" height="20" as="geometry"/>
                </mxCell>
                <mxCell id="38" value="" style="ellipse;whiteSpace=wrap;html=1;aspect=fixed;" vertex="1" parent="1">
                    <mxGeometry x="980" y="200" width="80" height="80" as="geometry"/>
                </mxCell>
                <mxCell id="40" value="" style="ellipse;whiteSpace=wrap;html=1;aspect=fixed;" vertex="1" parent="1">
                    <mxGeometry x="1140" y="200" width="80" height="80" as="geometry"/>
                </mxCell>
                <mxCell id="41" value="" style="ellipse;whiteSpace=wrap;html=1;aspect=fixed;" vertex="1" parent="1">
                    <mxGeometry x="1140" y="360" width="80" height="80" as="geometry"/>
                </mxCell>
                <mxCell id="42" value="" style="ellipse;whiteSpace=wrap;html=1;aspect=fixed;" vertex="1" parent="1">
                    <mxGeometry x="980" y="360" width="80" height="80" as="geometry"/>
                </mxCell>
                <mxCell id="44" value="" style="endArrow=none;html=1;entryX=1;entryY=1;entryDx=0;entryDy=0;exitX=0;exitY=0;exitDx=0;exitDy=0;" edge="1" parent="1" source="41" target="38">
                    <mxGeometry width="50" height="50" relative="1" as="geometry">
                        <mxPoint x="890" y="380" as="sourcePoint"/>
                        <mxPoint x="940" y="330" as="targetPoint"/>
                    </mxGeometry>
                </mxCell>
                <mxCell id="45" value="ship peg" style="text;html=1;align=center;verticalAlign=middle;resizable=0;points=[];autosize=1;strokeColor=none;" vertex="1" parent="1">
                    <mxGeometry x="1010" y="140" width="60" height="20" as="geometry"/>
                </mxCell>
                <mxCell id="46" value="analog signals from divider embedded in ship" style="text;html=1;align=center;verticalAlign=middle;resizable=0;points=[];autosize=1;strokeColor=none;" vertex="1" parent="1">
                    <mxGeometry x="50" y="530" width="260" height="20" as="geometry"/>
                </mxCell>
                <mxCell id="53" value="ship peg with resistor R and resistor B" style="text;html=1;align=center;verticalAlign=middle;resizable=0;points=[];autosize=1;strokeColor=none;" vertex="1" parent="1">
                    <mxGeometry x="300" y="590" width="220" height="20" as="geometry"/>
                </mxCell>
                <mxCell id="89" value="" style="group" vertex="1" connectable="0" parent="1">
                    <mxGeometry x="140" y="650" width="660" height="310" as="geometry"/>
                </mxCell>
                <mxCell id="73" value="" style="rounded=0;whiteSpace=wrap;html=1;" vertex="1" parent="89">
                    <mxGeometry width="660" height="310" as="geometry"/>
                </mxCell>
                <mxCell id="74" value="" style="ellipse;whiteSpace=wrap;html=1;aspect=fixed;" vertex="1" parent="89">
                    <mxGeometry x="40" y="50" width="80" height="80" as="geometry"/>
                </mxCell>
                <mxCell id="75" style="edgeStyle=orthogonalEdgeStyle;rounded=0;orthogonalLoop=1;jettySize=auto;html=1;exitX=0.5;exitY=0;exitDx=0;exitDy=0;endArrow=classic;endFill=1;strokeWidth=5;" edge="1" parent="89" source="76">
                    <mxGeometry relative="1" as="geometry">
                        <mxPoint x="240" y="10" as="targetPoint"/>
                    </mxGeometry>
                </mxCell>
                <mxCell id="76" value="" style="ellipse;whiteSpace=wrap;html=1;aspect=fixed;" vertex="1" parent="89">
                    <mxGeometry x="200" y="50" width="80" height="80" as="geometry"/>
                </mxCell>
                <mxCell id="77" value="" style="ellipse;whiteSpace=wrap;html=1;aspect=fixed;" vertex="1" parent="89">
                    <mxGeometry x="200" y="210" width="80" height="80" as="geometry"/>
                </mxCell>
                <mxCell id="78" value="" style="ellipse;whiteSpace=wrap;html=1;aspect=fixed;" vertex="1" parent="89">
                    <mxGeometry x="40" y="210" width="80" height="80" as="geometry"/>
                </mxCell>
                <mxCell id="79" value="" style="endArrow=none;html=1;entryX=1;entryY=1;entryDx=0;entryDy=0;exitX=0;exitY=0;exitDx=0;exitDy=0;fillColor=#a20025;strokeColor=#6F0000;strokeWidth=10;" edge="1" parent="89" source="77" target="74">
                    <mxGeometry width="50" height="50" relative="1" as="geometry">
                        <mxPoint x="-50" y="230" as="sourcePoint"/>
                        <mxPoint y="180" as="targetPoint"/>
                    </mxGeometry>
                </mxCell>
                <mxCell id="80" value="" style="endArrow=none;html=1;entryX=1;entryY=0;entryDx=0;entryDy=0;exitX=0;exitY=1;exitDx=0;exitDy=0;fillColor=#1ba1e2;strokeColor=#006EAF;strokeWidth=10;" edge="1" parent="89" source="76" target="78">
                    <mxGeometry width="50" height="50" relative="1" as="geometry">
                        <mxPoint x="221.7157287525381" y="231.7157287525381" as="sourcePoint"/>
                        <mxPoint x="118.2842712474619" y="128.2842712474619" as="targetPoint"/>
                    </mxGeometry>
                </mxCell>
                <mxCell id="81" value="" style="ellipse;whiteSpace=wrap;html=1;aspect=fixed;" vertex="1" parent="89">
                    <mxGeometry x="355" y="50" width="80" height="80" as="geometry"/>
                </mxCell>
                <mxCell id="82" style="edgeStyle=orthogonalEdgeStyle;rounded=0;orthogonalLoop=1;jettySize=auto;html=1;exitX=0.5;exitY=0;exitDx=0;exitDy=0;endArrow=classic;endFill=1;strokeWidth=5;" edge="1" parent="89" source="83">
                    <mxGeometry relative="1" as="geometry">
                        <mxPoint x="555" y="10" as="targetPoint"/>
                    </mxGeometry>
                </mxCell>
                <mxCell id="83" value="" style="ellipse;whiteSpace=wrap;html=1;aspect=fixed;" vertex="1" parent="89">
                    <mxGeometry x="515" y="50" width="80" height="80" as="geometry"/>
                </mxCell>
                <mxCell id="84" value="" style="ellipse;whiteSpace=wrap;html=1;aspect=fixed;" vertex="1" parent="89">
                    <mxGeometry x="515" y="210" width="80" height="80" as="geometry"/>
                </mxCell>
                <mxCell id="85" value="" style="ellipse;whiteSpace=wrap;html=1;aspect=fixed;" vertex="1" parent="89">
                    <mxGeometry x="355" y="210" width="80" height="80" as="geometry"/>
                </mxCell>
                <mxCell id="86" value="" style="endArrow=none;html=1;entryX=1;entryY=1;entryDx=0;entryDy=0;exitX=0;exitY=0;exitDx=0;exitDy=0;fillColor=#a20025;strokeColor=#6F0000;strokeWidth=10;" edge="1" parent="89" source="84" target="81">
                    <mxGeometry width="50" height="50" relative="1" as="geometry">
                        <mxPoint x="265" y="230" as="sourcePoint"/>
                        <mxPoint x="315" y="180" as="targetPoint"/>
                    </mxGeometry>
                </mxCell>
                <mxCell id="87" value="" style="endArrow=none;html=1;entryX=1;entryY=0;entryDx=0;entryDy=0;exitX=0;exitY=1;exitDx=0;exitDy=0;fillColor=#1ba1e2;strokeColor=#006EAF;strokeWidth=10;" edge="1" parent="89" source="83" target="85">
                    <mxGeometry width="50" height="50" relative="1" as="geometry">
                        <mxPoint x="536.7157287525381" y="231.7157287525381" as="sourcePoint"/>
                        <mxPoint x="433.2842712474619" y="128.2842712474619" as="targetPoint"/>
                    </mxGeometry>
                </mxCell>
                <mxCell id="88" value="PATROL BOAT" style="text;html=1;align=center;verticalAlign=middle;resizable=0;points=[];autosize=1;strokeColor=none;" vertex="1" parent="89">
                    <mxGeometry x="10" y="10" width="100" height="20" as="geometry"/>
                </mxCell>
                <mxCell id="90" value="" style="group;rotation=90;" vertex="1" connectable="0" parent="1">
                    <mxGeometry x="820" y="830" width="660" height="310" as="geometry"/>
                </mxCell>
                <mxCell id="91" value="" style="rounded=0;whiteSpace=wrap;html=1;rotation=90;" vertex="1" parent="90">
                    <mxGeometry width="660" height="310" as="geometry"/>
                </mxCell>
                <mxCell id="92" value="" style="ellipse;whiteSpace=wrap;html=1;aspect=fixed;rotation=90;" vertex="1" parent="90">
                    <mxGeometry x="355" y="-135" width="80" height="80" as="geometry"/>
                </mxCell>
                <mxCell id="93" style="edgeStyle=orthogonalEdgeStyle;rounded=0;orthogonalLoop=1;jettySize=auto;html=1;exitX=0.5;exitY=0;exitDx=0;exitDy=0;endArrow=classic;endFill=1;strokeWidth=5;" edge="1" parent="90" source="94">
                    <mxGeometry relative="1" as="geometry">
                        <mxPoint x="475" y="65" as="targetPoint"/>
                    </mxGeometry>
                </mxCell>
                <mxCell id="94" value="" style="ellipse;whiteSpace=wrap;html=1;aspect=fixed;rotation=90;" vertex="1" parent="90">
                    <mxGeometry x="355" y="25" width="80" height="80" as="geometry"/>
                </mxCell>
                <mxCell id="95" value="" style="ellipse;whiteSpace=wrap;html=1;aspect=fixed;rotation=90;" vertex="1" parent="90">
                    <mxGeometry x="195" y="25" width="80" height="80" as="geometry"/>
                </mxCell>
                <mxCell id="96" value="" style="ellipse;whiteSpace=wrap;html=1;aspect=fixed;rotation=90;" vertex="1" parent="90">
                    <mxGeometry x="195" y="-135" width="80" height="80" as="geometry"/>
                </mxCell>
                <mxCell id="97" value="" style="endArrow=none;html=1;entryX=1;entryY=1;entryDx=0;entryDy=0;exitX=0;exitY=0;exitDx=0;exitDy=0;fillColor=#a20025;strokeColor=#6F0000;strokeWidth=10;" edge="1" parent="90" source="95" target="92">
                    <mxGeometry width="50" height="50" relative="1" as="geometry">
                        <mxPoint x="255" y="-225" as="sourcePoint"/>
                        <mxPoint x="305" y="-175" as="targetPoint"/>
                    </mxGeometry>
                </mxCell>
                <mxCell id="98" value="" style="endArrow=none;html=1;entryX=1;entryY=0;entryDx=0;entryDy=0;exitX=0;exitY=1;exitDx=0;exitDy=0;fillColor=#1ba1e2;strokeColor=#006EAF;strokeWidth=10;" edge="1" parent="90" source="94" target="96">
                    <mxGeometry width="50" height="50" relative="1" as="geometry">
                        <mxPoint x="253" y="47" as="sourcePoint"/>
                        <mxPoint x="357" y="-57" as="targetPoint"/>
                    </mxGeometry>
                </mxCell>
                <mxCell id="99" value="" style="ellipse;whiteSpace=wrap;html=1;aspect=fixed;rotation=90;" vertex="1" parent="90">
                    <mxGeometry x="355" y="180" width="80" height="80" as="geometry"/>
                </mxCell>
                <mxCell id="100" style="edgeStyle=orthogonalEdgeStyle;rounded=0;orthogonalLoop=1;jettySize=auto;html=1;exitX=0.5;exitY=0;exitDx=0;exitDy=0;endArrow=classic;endFill=1;strokeWidth=5;" edge="1" parent="90" source="101">
                    <mxGeometry relative="1" as="geometry">
                        <mxPoint x="475" y="380" as="targetPoint"/>
                    </mxGeometry>
                </mxCell>
                <mxCell id="101" value="" style="ellipse;whiteSpace=wrap;html=1;aspect=fixed;rotation=90;" vertex="1" parent="90">
                    <mxGeometry x="355" y="340" width="80" height="80" as="geometry"/>
                </mxCell>
                <mxCell id="102" value="" style="ellipse;whiteSpace=wrap;html=1;aspect=fixed;rotation=90;" vertex="1" parent="90">
                    <mxGeometry x="195" y="340" width="80" height="80" as="geometry"/>
                </mxCell>
                <mxCell id="103" value="" style="ellipse;whiteSpace=wrap;html=1;aspect=fixed;rotation=90;" vertex="1" parent="90">
                    <mxGeometry x="195" y="180" width="80" height="80" as="geometry"/>
                </mxCell>
                <mxCell id="104" value="" style="endArrow=none;html=1;entryX=1;entryY=1;entryDx=0;entryDy=0;exitX=0;exitY=0;exitDx=0;exitDy=0;fillColor=#a20025;strokeColor=#6F0000;strokeWidth=10;" edge="1" parent="90" source="102" target="99">
                    <mxGeometry width="50" height="50" relative="1" as="geometry">
                        <mxPoint x="255" y="90" as="sourcePoint"/>
                        <mxPoint x="305" y="140" as="targetPoint"/>
                    </mxGeometry>
                </mxCell>
                <mxCell id="105" value="" style="endArrow=none;html=1;entryX=1;entryY=0;entryDx=0;entryDy=0;exitX=0;exitY=1;exitDx=0;exitDy=0;fillColor=#1ba1e2;strokeColor=#006EAF;strokeWidth=10;" edge="1" parent="90" source="101" target="103">
                    <mxGeometry width="50" height="50" relative="1" as="geometry">
                        <mxPoint x="253" y="362" as="sourcePoint"/>
                        <mxPoint x="357" y="258" as="targetPoint"/>
                    </mxGeometry>
                </mxCell>
                <mxCell id="106" value="PATROL BOAT" style="text;html=1;align=center;verticalAlign=middle;resizable=0;points=[];autosize=1;strokeColor=none;rotation=90;" vertex="1" parent="90">
                    <mxGeometry x="415" y="-125" width="100" height="20" as="geometry"/>
                </mxCell>
                <mxCell id="107" value="" style="group;rotation=-180;" vertex="1" connectable="0" parent="1">
                    <mxGeometry x="130" y="1020" width="660" height="310" as="geometry"/>
                </mxCell>
                <mxCell id="108" value="" style="rounded=0;whiteSpace=wrap;html=1;rotation=-180;" vertex="1" parent="107">
                    <mxGeometry width="660" height="310" as="geometry"/>
                </mxCell>
                <mxCell id="109" value="" style="ellipse;whiteSpace=wrap;html=1;aspect=fixed;rotation=-180;" vertex="1" parent="107">
                    <mxGeometry x="540" y="180" width="80" height="80" as="geometry"/>
                </mxCell>
                <mxCell id="110" style="edgeStyle=orthogonalEdgeStyle;rounded=0;orthogonalLoop=1;jettySize=auto;html=1;exitX=0.5;exitY=0;exitDx=0;exitDy=0;endArrow=classic;endFill=1;strokeWidth=5;" edge="1" parent="107" source="111">
                    <mxGeometry relative="1" as="geometry">
                        <mxPoint x="420" y="300" as="targetPoint"/>
                    </mxGeometry>
                </mxCell>
                <mxCell id="111" value="" style="ellipse;whiteSpace=wrap;html=1;aspect=fixed;rotation=-180;" vertex="1" parent="107">
                    <mxGeometry x="380" y="180" width="80" height="80" as="geometry"/>
                </mxCell>
                <mxCell id="112" value="" style="ellipse;whiteSpace=wrap;html=1;aspect=fixed;rotation=-180;" vertex="1" parent="107">
                    <mxGeometry x="380" y="20" width="80" height="80" as="geometry"/>
                </mxCell>
                <mxCell id="113" value="" style="ellipse;whiteSpace=wrap;html=1;aspect=fixed;rotation=-180;" vertex="1" parent="107">
                    <mxGeometry x="540" y="20" width="80" height="80" as="geometry"/>
                </mxCell>
                <mxCell id="114" value="" style="endArrow=none;html=1;entryX=1;entryY=1;entryDx=0;entryDy=0;exitX=0;exitY=0;exitDx=0;exitDy=0;fillColor=#a20025;strokeColor=#6F0000;strokeWidth=10;" edge="1" parent="107" source="112" target="109">
                    <mxGeometry width="50" height="50" relative="1" as="geometry">
                        <mxPoint x="710" y="80" as="sourcePoint"/>
                        <mxPoint x="660" y="130" as="targetPoint"/>
                    </mxGeometry>
                </mxCell>
                <mxCell id="115" value="" style="endArrow=none;html=1;entryX=1;entryY=0;entryDx=0;entryDy=0;exitX=0;exitY=1;exitDx=0;exitDy=0;fillColor=#1ba1e2;strokeColor=#006EAF;strokeWidth=10;" edge="1" parent="107" source="111" target="113">
                    <mxGeometry width="50" height="50" relative="1" as="geometry">
                        <mxPoint x="438" y="78" as="sourcePoint"/>
                        <mxPoint x="542" y="182" as="targetPoint"/>
                    </mxGeometry>
                </mxCell>
                <mxCell id="116" value="" style="ellipse;whiteSpace=wrap;html=1;aspect=fixed;rotation=-180;" vertex="1" parent="107">
                    <mxGeometry x="225" y="180" width="80" height="80" as="geometry"/>
                </mxCell>
                <mxCell id="117" style="edgeStyle=orthogonalEdgeStyle;rounded=0;orthogonalLoop=1;jettySize=auto;html=1;exitX=0.5;exitY=0;exitDx=0;exitDy=0;endArrow=classic;endFill=1;strokeWidth=5;" edge="1" parent="107" source="118">
                    <mxGeometry relative="1" as="geometry">
                        <mxPoint x="105" y="300" as="targetPoint"/>
                    </mxGeometry>
                </mxCell>
                <mxCell id="118" value="" style="ellipse;whiteSpace=wrap;html=1;aspect=fixed;rotation=-180;" vertex="1" parent="107">
                    <mxGeometry x="65" y="180" width="80" height="80" as="geometry"/>
                </mxCell>
                <mxCell id="119" value="" style="ellipse;whiteSpace=wrap;html=1;aspect=fixed;rotation=-180;" vertex="1" parent="107">
                    <mxGeometry x="65" y="20" width="80" height="80" as="geometry"/>
                </mxCell>
                <mxCell id="120" value="" style="ellipse;whiteSpace=wrap;html=1;aspect=fixed;rotation=-180;" vertex="1" parent="107">
                    <mxGeometry x="225" y="20" width="80" height="80" as="geometry"/>
                </mxCell>
                <mxCell id="121" value="" style="endArrow=none;html=1;entryX=1;entryY=1;entryDx=0;entryDy=0;exitX=0;exitY=0;exitDx=0;exitDy=0;fillColor=#a20025;strokeColor=#6F0000;strokeWidth=10;" edge="1" parent="107" source="119" target="116">
                    <mxGeometry width="50" height="50" relative="1" as="geometry">
                        <mxPoint x="395" y="80" as="sourcePoint"/>
                        <mxPoint x="345" y="130" as="targetPoint"/>
                    </mxGeometry>
                </mxCell>
                <mxCell id="122" value="" style="endArrow=none;html=1;entryX=1;entryY=0;entryDx=0;entryDy=0;exitX=0;exitY=1;exitDx=0;exitDy=0;fillColor=#1ba1e2;strokeColor=#006EAF;strokeWidth=10;" edge="1" parent="107" source="118" target="120">
                    <mxGeometry width="50" height="50" relative="1" as="geometry">
                        <mxPoint x="123" y="78" as="sourcePoint"/>
                        <mxPoint x="227" y="182" as="targetPoint"/>
                    </mxGeometry>
                </mxCell>
                <mxCell id="123" value="PATROL BOAT" style="text;html=1;align=center;verticalAlign=middle;resizable=0;points=[];autosize=1;strokeColor=none;rotation=-180;" vertex="1" parent="107">
                    <mxGeometry x="550" y="280" width="100" height="20" as="geometry"/>
                </mxCell>
                <mxCell id="124" value="" style="group;rotation=-90;" vertex="1" connectable="0" parent="1">
                    <mxGeometry x="1250" y="830" width="660" height="310" as="geometry"/>
                </mxCell>
                <mxCell id="125" value="" style="rounded=0;whiteSpace=wrap;html=1;rotation=-90;" vertex="1" parent="124">
                    <mxGeometry width="660" height="310" as="geometry"/>
                </mxCell>
                <mxCell id="126" value="" style="ellipse;whiteSpace=wrap;html=1;aspect=fixed;rotation=-90;" vertex="1" parent="124">
                    <mxGeometry x="225" y="365" width="80" height="80" as="geometry"/>
                </mxCell>
                <mxCell id="127" style="edgeStyle=orthogonalEdgeStyle;rounded=0;orthogonalLoop=1;jettySize=auto;html=1;exitX=0.5;exitY=0;exitDx=0;exitDy=0;endArrow=classic;endFill=1;strokeWidth=5;" edge="1" parent="124" source="128">
                    <mxGeometry relative="1" as="geometry">
                        <mxPoint x="185" y="245" as="targetPoint"/>
                    </mxGeometry>
                </mxCell>
                <mxCell id="128" value="" style="ellipse;whiteSpace=wrap;html=1;aspect=fixed;rotation=-90;" vertex="1" parent="124">
                    <mxGeometry x="225" y="205" width="80" height="80" as="geometry"/>
                </mxCell>
                <mxCell id="129" value="" style="ellipse;whiteSpace=wrap;html=1;aspect=fixed;rotation=-90;" vertex="1" parent="124">
                    <mxGeometry x="385" y="205" width="80" height="80" as="geometry"/>
                </mxCell>
                <mxCell id="130" value="" style="ellipse;whiteSpace=wrap;html=1;aspect=fixed;rotation=-90;" vertex="1" parent="124">
                    <mxGeometry x="385" y="365" width="80" height="80" as="geometry"/>
                </mxCell>
                <mxCell id="131" value="" style="endArrow=none;html=1;entryX=1;entryY=1;entryDx=0;entryDy=0;exitX=0;exitY=0;exitDx=0;exitDy=0;fillColor=#a20025;strokeColor=#6F0000;strokeWidth=10;" edge="1" parent="124" source="129" target="126">
                    <mxGeometry width="50" height="50" relative="1" as="geometry">
                        <mxPoint x="405" y="535" as="sourcePoint"/>
                        <mxPoint x="355" y="485" as="targetPoint"/>
                    </mxGeometry>
                </mxCell>
                <mxCell id="132" value="" style="endArrow=none;html=1;entryX=1;entryY=0;entryDx=0;entryDy=0;exitX=0;exitY=1;exitDx=0;exitDy=0;fillColor=#1ba1e2;strokeColor=#006EAF;strokeWidth=10;" edge="1" parent="124" source="128" target="130">
                    <mxGeometry width="50" height="50" relative="1" as="geometry">
                        <mxPoint x="407" y="263" as="sourcePoint"/>
                        <mxPoint x="303" y="367" as="targetPoint"/>
                    </mxGeometry>
                </mxCell>
                <mxCell id="179" value="Text" style="edgeLabel;html=1;align=center;verticalAlign=middle;resizable=0;points=[];" vertex="1" connectable="0" parent="132">
                    <mxGeometry x="-0.0901" y="1" relative="1" as="geometry">
                        <mxPoint x="1" as="offset"/>
                    </mxGeometry>
                </mxCell>
                <mxCell id="133" value="" style="ellipse;whiteSpace=wrap;html=1;aspect=fixed;rotation=-90;" vertex="1" parent="124">
                    <mxGeometry x="225" y="50" width="80" height="80" as="geometry"/>
                </mxCell>
                <mxCell id="134" style="edgeStyle=orthogonalEdgeStyle;rounded=0;orthogonalLoop=1;jettySize=auto;html=1;exitX=0.5;exitY=0;exitDx=0;exitDy=0;endArrow=classic;endFill=1;strokeWidth=5;" edge="1" parent="124" source="135">
                    <mxGeometry relative="1" as="geometry">
                        <mxPoint x="185" y="-70" as="targetPoint"/>
                    </mxGeometry>
                </mxCell>
                <mxCell id="135" value="" style="ellipse;whiteSpace=wrap;html=1;aspect=fixed;rotation=-90;" vertex="1" parent="124">
                    <mxGeometry x="225" y="-110" width="80" height="80" as="geometry"/>
                </mxCell>
                <mxCell id="136" value="" style="ellipse;whiteSpace=wrap;html=1;aspect=fixed;rotation=-90;" vertex="1" parent="124">
                    <mxGeometry x="385" y="-110" width="80" height="80" as="geometry"/>
                </mxCell>
                <mxCell id="137" value="" style="ellipse;whiteSpace=wrap;html=1;aspect=fixed;rotation=-90;" vertex="1" parent="124">
                    <mxGeometry x="385" y="50" width="80" height="80" as="geometry"/>
                </mxCell>
                <mxCell id="138" value="" style="endArrow=none;html=1;entryX=1;entryY=1;entryDx=0;entryDy=0;exitX=0;exitY=0;exitDx=0;exitDy=0;fillColor=#a20025;strokeColor=#6F0000;strokeWidth=10;" edge="1" parent="124" source="136" target="133">
                    <mxGeometry width="50" height="50" relative="1" as="geometry">
                        <mxPoint x="405" y="220" as="sourcePoint"/>
                        <mxPoint x="355" y="170" as="targetPoint"/>
                    </mxGeometry>
                </mxCell>
                <mxCell id="139" value="" style="endArrow=none;html=1;entryX=1;entryY=0;entryDx=0;entryDy=0;exitX=0;exitY=1;exitDx=0;exitDy=0;fillColor=#1ba1e2;strokeColor=#006EAF;strokeWidth=10;" edge="1" parent="124" source="135" target="137">
                    <mxGeometry width="50" height="50" relative="1" as="geometry">
                        <mxPoint x="407" y="-52" as="sourcePoint"/>
                        <mxPoint x="303" y="52" as="targetPoint"/>
                    </mxGeometry>
                </mxCell>
                <mxCell id="140" value="PATROL BOAT" style="text;html=1;align=center;verticalAlign=middle;resizable=0;points=[];autosize=1;strokeColor=none;rotation=-90;" vertex="1" parent="124">
                    <mxGeometry x="145" y="415" width="100" height="20" as="geometry"/>
                </mxCell>
                <mxCell id="159" value="&lt;font style=&quot;font-size: 20px&quot;&gt;Board Peg hole&lt;/font&gt;" style="text;html=1;align=center;verticalAlign=middle;resizable=0;points=[];autosize=1;strokeColor=none;" vertex="1" parent="1">
                    <mxGeometry x="470" y="1530" width="150" height="20" as="geometry"/>
                </mxCell>
                <mxCell id="174" value="&lt;font style=&quot;font-size: 20px&quot;&gt;Board Peg hole with ship inserted&lt;/font&gt;" style="text;html=1;align=center;verticalAlign=middle;resizable=0;points=[];autosize=1;strokeColor=none;" vertex="1" parent="1">
                    <mxGeometry x="1025" y="1470" width="310" height="20" as="geometry"/>
                </mxCell>
                <mxCell id="199" value="" style="group" vertex="1" connectable="0" parent="1">
                    <mxGeometry x="645" y="1510" width="240" height="450" as="geometry"/>
                </mxCell>
                <mxCell id="161" style="edgeStyle=orthogonalEdgeStyle;rounded=0;orthogonalLoop=1;jettySize=auto;html=1;exitX=0.5;exitY=0;exitDx=0;exitDy=0;endArrow=classic;endFill=1;strokeWidth=10;fillColor=#60a917;strokeColor=#2D7600;" edge="1" parent="199" source="150">
                    <mxGeometry relative="1" as="geometry">
                        <mxPoint x="40.71428571428578" as="targetPoint"/>
                    </mxGeometry>
                </mxCell>
                <mxCell id="150" value="" style="ellipse;whiteSpace=wrap;html=1;aspect=fixed;rotation=-360;" vertex="1" parent="199">
                    <mxGeometry y="130" width="80" height="80" as="geometry"/>
                </mxCell>
                <mxCell id="151" style="edgeStyle=orthogonalEdgeStyle;rounded=0;orthogonalLoop=1;jettySize=auto;html=1;exitX=0.5;exitY=0;exitDx=0;exitDy=0;endArrow=classic;endFill=1;strokeWidth=5;" edge="1" parent="199" source="152">
                    <mxGeometry x="305" y="390" as="geometry">
                        <mxPoint x="200" y="90" as="targetPoint"/>
                    </mxGeometry>
                </mxCell>
                <mxCell id="152" value="" style="ellipse;whiteSpace=wrap;html=1;aspect=fixed;rotation=-360;" vertex="1" parent="199">
                    <mxGeometry x="160" y="130" width="80" height="80" as="geometry"/>
                </mxCell>
                <mxCell id="153" value="" style="ellipse;whiteSpace=wrap;html=1;aspect=fixed;rotation=-360;" vertex="1" parent="199">
                    <mxGeometry x="160" y="290" width="80" height="80" as="geometry"/>
                </mxCell>
                <mxCell id="154" value="" style="ellipse;whiteSpace=wrap;html=1;aspect=fixed;rotation=-360;" vertex="1" parent="199">
                    <mxGeometry y="290" width="80" height="80" as="geometry"/>
                </mxCell>
                <mxCell id="155" value="" style="endArrow=none;html=1;entryX=0.5;entryY=1;entryDx=0;entryDy=0;exitX=0.5;exitY=0;exitDx=0;exitDy=0;fillColor=#60a917;strokeColor=#2D7600;strokeWidth=10;" edge="1" parent="199" source="153" target="152">
                    <mxGeometry x="255" y="340" width="50" height="50" as="geometry">
                        <mxPoint x="-90" y="310" as="sourcePoint"/>
                        <mxPoint x="-40" y="260" as="targetPoint"/>
                    </mxGeometry>
                </mxCell>
                <mxCell id="162" value="&lt;font style=&quot;font-size: 20px&quot;&gt;Vdd=3.3V&lt;/font&gt;" style="text;html=1;align=center;verticalAlign=middle;resizable=0;points=[];autosize=1;strokeColor=none;" vertex="1" parent="199">
                    <mxGeometry x="55" y="20" width="100" height="20" as="geometry"/>
                </mxCell>
                <mxCell id="164" value="" style="triangle;whiteSpace=wrap;html=1;rotation=90;strokeWidth=10;strokeColor=#2D7600;fontColor=#ffffff;fillColor=none;" vertex="1" parent="199">
                    <mxGeometry x="17.5" y="387.5" width="45" height="80" as="geometry"/>
                </mxCell>
                <mxCell id="163" style="edgeStyle=orthogonalEdgeStyle;rounded=0;orthogonalLoop=1;jettySize=auto;html=1;exitX=0.5;exitY=1;exitDx=0;exitDy=0;endArrow=none;endFill=0;strokeWidth=10;fillColor=#60a917;strokeColor=#2D7600;" edge="1" parent="199" source="154" target="164">
                    <mxGeometry relative="1" as="geometry">
                        <mxPoint x="40" y="435" as="targetPoint"/>
                    </mxGeometry>
                </mxCell>
                <mxCell id="165" value="&lt;font style=&quot;font-size: 20px&quot;&gt;GND&lt;/font&gt;" style="text;html=1;align=center;verticalAlign=middle;resizable=0;points=[];autosize=1;strokeColor=none;" vertex="1" parent="199">
                    <mxGeometry x="75" y="430" width="60" height="20" as="geometry"/>
                </mxCell>
                <mxCell id="239" value="" style="group" vertex="1" connectable="0" parent="1">
                    <mxGeometry x="1710" y="1490" width="250" height="450" as="geometry"/>
                </mxCell>
                <mxCell id="240" style="edgeStyle=orthogonalEdgeStyle;rounded=0;orthogonalLoop=1;jettySize=auto;html=1;exitX=0.5;exitY=0;exitDx=0;exitDy=0;endArrow=classic;endFill=1;strokeWidth=10;fillColor=#60a917;strokeColor=#2D7600;" edge="1" parent="239" source="241">
                    <mxGeometry relative="1" as="geometry">
                        <mxPoint x="40.71428571428578" as="targetPoint"/>
                    </mxGeometry>
                </mxCell>
                <mxCell id="241" value="" style="ellipse;whiteSpace=wrap;html=1;aspect=fixed;rotation=-360;" vertex="1" parent="239">
                    <mxGeometry y="130" width="80" height="80" as="geometry"/>
                </mxCell>
                <mxCell id="242" style="edgeStyle=orthogonalEdgeStyle;rounded=0;orthogonalLoop=1;jettySize=auto;html=1;exitX=0.5;exitY=0;exitDx=0;exitDy=0;endArrow=classic;endFill=1;strokeWidth=5;" edge="1" parent="239" source="243">
                    <mxGeometry x="305" y="390" as="geometry">
                        <mxPoint x="200" y="90" as="targetPoint"/>
                    </mxGeometry>
                </mxCell>
                <mxCell id="243" value="" style="ellipse;whiteSpace=wrap;html=1;aspect=fixed;rotation=-360;" vertex="1" parent="239">
                    <mxGeometry x="160" y="130" width="80" height="80" as="geometry"/>
                </mxCell>
                <mxCell id="244" value="" style="ellipse;whiteSpace=wrap;html=1;aspect=fixed;rotation=-360;" vertex="1" parent="239">
                    <mxGeometry x="160" y="290" width="80" height="80" as="geometry"/>
                </mxCell>
                <mxCell id="245" value="" style="ellipse;whiteSpace=wrap;html=1;aspect=fixed;rotation=-360;" vertex="1" parent="239">
                    <mxGeometry y="290" width="80" height="80" as="geometry"/>
                </mxCell>
                <mxCell id="246" value="" style="endArrow=none;html=1;entryX=0.5;entryY=1;entryDx=0;entryDy=0;exitX=0.5;exitY=0;exitDx=0;exitDy=0;fillColor=#60a917;strokeColor=#2D7600;strokeWidth=10;" edge="1" parent="239" source="244" target="243">
                    <mxGeometry x="255" y="340" width="50" height="50" as="geometry">
                        <mxPoint x="-90" y="310" as="sourcePoint"/>
                        <mxPoint x="-40" y="260" as="targetPoint"/>
                    </mxGeometry>
                </mxCell>
                <mxCell id="247" value="&lt;font style=&quot;font-size: 20px&quot;&gt;Vdd=3.3V&lt;/font&gt;" style="text;html=1;align=center;verticalAlign=middle;resizable=0;points=[];autosize=1;strokeColor=none;" vertex="1" parent="239">
                    <mxGeometry x="55" y="20" width="100" height="20" as="geometry"/>
                </mxCell>
                <mxCell id="248" value="" style="triangle;whiteSpace=wrap;html=1;rotation=90;strokeWidth=10;strokeColor=#2D7600;fontColor=#ffffff;fillColor=none;" vertex="1" parent="239">
                    <mxGeometry x="17.5" y="387.5" width="45" height="80" as="geometry"/>
                </mxCell>
                <mxCell id="249" style="edgeStyle=orthogonalEdgeStyle;rounded=0;orthogonalLoop=1;jettySize=auto;html=1;exitX=0.5;exitY=1;exitDx=0;exitDy=0;endArrow=none;endFill=0;strokeWidth=10;fillColor=#60a917;strokeColor=#2D7600;" edge="1" parent="239" source="245" target="248">
                    <mxGeometry relative="1" as="geometry">
                        <mxPoint x="40" y="435" as="targetPoint"/>
                    </mxGeometry>
                </mxCell>
                <mxCell id="250" value="&lt;font style=&quot;font-size: 20px&quot;&gt;GND&lt;/font&gt;" style="text;html=1;align=center;verticalAlign=middle;resizable=0;points=[];autosize=1;strokeColor=none;" vertex="1" parent="239">
                    <mxGeometry x="75" y="430" width="60" height="20" as="geometry"/>
                </mxCell>
                <mxCell id="231" value="" style="group;rotation=-90;" vertex="1" connectable="0" parent="239">
                    <mxGeometry x="10" y="110" width="240" height="280" as="geometry"/>
                </mxCell>
                <mxCell id="232" value="" style="ellipse;whiteSpace=wrap;html=1;aspect=fixed;rotation=-270;" vertex="1" parent="231">
                    <mxGeometry x="140" y="20" width="80" height="80" as="geometry"/>
                </mxCell>
                <mxCell id="233" style="edgeStyle=orthogonalEdgeStyle;rounded=0;orthogonalLoop=1;jettySize=auto;html=1;exitX=0.5;exitY=0;exitDx=0;exitDy=0;endArrow=classic;endFill=1;strokeWidth=5;" edge="1" parent="231" source="234">
                    <mxGeometry x="-40" y="640" as="geometry">
                        <mxPoint x="260" y="220" as="targetPoint"/>
                    </mxGeometry>
                </mxCell>
                <mxCell id="234" value="" style="ellipse;whiteSpace=wrap;html=1;aspect=fixed;rotation=-270;" vertex="1" parent="231">
                    <mxGeometry x="140" y="180" width="80" height="80" as="geometry"/>
                </mxCell>
                <mxCell id="235" value="" style="ellipse;whiteSpace=wrap;html=1;aspect=fixed;rotation=-270;" vertex="1" parent="231">
                    <mxGeometry x="-20" y="180" width="80" height="80" as="geometry"/>
                </mxCell>
                <mxCell id="236" value="" style="ellipse;whiteSpace=wrap;html=1;aspect=fixed;rotation=-270;" vertex="1" parent="231">
                    <mxGeometry x="-20" y="20" width="80" height="80" as="geometry"/>
                </mxCell>
                <mxCell id="237" value="" style="endArrow=none;html=1;entryX=1;entryY=1;entryDx=0;entryDy=0;exitX=0;exitY=0;exitDx=0;exitDy=0;fillColor=#a20025;strokeColor=#6F0000;strokeWidth=10;" edge="1" parent="231" source="235" target="232">
                    <mxGeometry x="-40" y="590" width="50" height="50" as="geometry">
                        <mxPoint x="40" y="-70" as="sourcePoint"/>
                        <mxPoint x="90" y="-20" as="targetPoint"/>
                    </mxGeometry>
                </mxCell>
                <mxCell id="238" value="" style="endArrow=none;html=1;entryX=1;entryY=0;entryDx=0;entryDy=0;exitX=0;exitY=1;exitDx=0;exitDy=0;fillColor=#1ba1e2;strokeColor=#006EAF;strokeWidth=10;" edge="1" parent="231" source="234" target="236">
                    <mxGeometry x="-40" y="590" width="50" height="50" as="geometry">
                        <mxPoint x="38" y="202" as="sourcePoint"/>
                        <mxPoint x="142" y="98" as="targetPoint"/>
                    </mxGeometry>
                </mxCell>
                <mxCell id="252" value="&lt;br&gt;" style="text;html=1;align=center;verticalAlign=middle;resizable=0;points=[];autosize=1;strokeColor=none;" vertex="1" parent="1">
                    <mxGeometry x="1440" y="1740" width="20" height="20" as="geometry"/>
                </mxCell>
                <mxCell id="254" value="" style="pointerEvents=1;verticalLabelPosition=bottom;shadow=0;dashed=0;align=center;html=1;verticalAlign=top;shape=mxgraph.electrical.resistors.resistor_2;strokeWidth=10;fillColor=#a20025;rotation=90;strokeColor=#6F0000;fontColor=#ffffff;" vertex="1" parent="1">
                    <mxGeometry x="1430" y="1720" width="100" height="20" as="geometry"/>
                </mxCell>
                <mxCell id="256" value="V&lt;sub&gt;dd&lt;/sub&gt;" style="verticalLabelPosition=top;verticalAlign=bottom;shape=mxgraph.electrical.signal_sources.vdd;shadow=0;dashed=0;align=center;strokeWidth=10;fontSize=24;html=1;flipV=1;fillColor=#60a917;strokeColor=#2D7600;fontColor=#ffffff;" vertex="1" parent="1">
                    <mxGeometry x="1450" y="1640" width="60" height="40" as="geometry"/>
                </mxCell>
                <mxCell id="257" value="" style="pointerEvents=1;verticalLabelPosition=bottom;shadow=0;dashed=0;align=center;html=1;verticalAlign=top;shape=mxgraph.electrical.signal_sources.signal_ground;strokeWidth=10;strokeColor=#2D7600;fontColor=#ffffff;fillColor=none;" vertex="1" parent="1">
                    <mxGeometry x="1457.5" y="1880" width="45" height="30" as="geometry"/>
                </mxCell>
                <mxCell id="258" value="" style="pointerEvents=1;verticalLabelPosition=bottom;shadow=0;dashed=0;align=center;html=1;verticalAlign=top;shape=mxgraph.electrical.resistors.resistor_2;strokeWidth=10;fillColor=#1ba1e2;rotation=90;strokeColor=#006EAF;fontColor=#ffffff;" vertex="1" parent="1">
                    <mxGeometry x="1430" y="1820" width="100" height="20" as="geometry"/>
                </mxCell>
                <mxCell id="259" value="&lt;br&gt;" style="text;html=1;align=center;verticalAlign=middle;resizable=0;points=[];autosize=1;strokeColor=none;" vertex="1" parent="1">
                    <mxGeometry x="2040" y="1715" width="20" height="20" as="geometry"/>
                </mxCell>
                <mxCell id="260" value="" style="pointerEvents=1;verticalLabelPosition=bottom;shadow=0;dashed=0;align=center;html=1;verticalAlign=top;shape=mxgraph.electrical.resistors.resistor_2;strokeWidth=10;fillColor=#1ba1e2;rotation=90;strokeColor=#006EAF;fontColor=#ffffff;" vertex="1" parent="1">
                    <mxGeometry x="2030" y="1695" width="100" height="20" as="geometry"/>
                </mxCell>
                <mxCell id="261" value="V&lt;sub&gt;dd&lt;/sub&gt;" style="verticalLabelPosition=top;verticalAlign=bottom;shape=mxgraph.electrical.signal_sources.vdd;shadow=0;dashed=0;align=center;strokeWidth=10;fontSize=24;html=1;flipV=1;fillColor=#60a917;strokeColor=#2D7600;fontColor=#ffffff;" vertex="1" parent="1">
                    <mxGeometry x="2050" y="1615" width="60" height="40" as="geometry"/>
                </mxCell>
                <mxCell id="262" value="" style="pointerEvents=1;verticalLabelPosition=bottom;shadow=0;dashed=0;align=center;html=1;verticalAlign=top;shape=mxgraph.electrical.signal_sources.signal_ground;strokeWidth=10;strokeColor=#2D7600;fontColor=#ffffff;fillColor=none;" vertex="1" parent="1">
                    <mxGeometry x="2057.5" y="1855" width="45" height="30" as="geometry"/>
                </mxCell>
                <mxCell id="263" value="" style="pointerEvents=1;verticalLabelPosition=bottom;shadow=0;dashed=0;align=center;html=1;verticalAlign=top;shape=mxgraph.electrical.resistors.resistor_2;strokeWidth=10;fillColor=#a20025;rotation=90;strokeColor=#6F0000;fontColor=#ffffff;" vertex="1" parent="1">
                    <mxGeometry x="2030" y="1795" width="100" height="20" as="geometry"/>
                </mxCell>
                <mxCell id="265" value="&lt;font style=&quot;font-size: 20px&quot;&gt;orientation A&lt;/font&gt;" style="text;html=1;align=center;verticalAlign=middle;resizable=0;points=[];autosize=1;strokeColor=none;" vertex="1" parent="1">
                    <mxGeometry x="1345" y="1540" width="130" height="20" as="geometry"/>
                </mxCell>
                <mxCell id="266" value="&lt;span style=&quot;color: rgb(240 , 240 , 240) ; font-family: &amp;#34;helvetica&amp;#34; ; font-size: 20px ; font-style: normal ; font-weight: 400 ; letter-spacing: normal ; text-align: center ; text-indent: 0px ; text-transform: none ; word-spacing: 0px ; background-color: rgb(42 , 42 , 42) ; display: inline ; float: none&quot;&gt;orientation B&lt;/span&gt;" style="text;whiteSpace=wrap;html=1;" vertex="1" parent="1">
                    <mxGeometry x="1960" y="1520" width="140" height="30" as="geometry"/>
                </mxCell>
            </root>
        </mxGraphModel>
    </diagram>
</mxfile>